PathFileType	3	(X/Y/Z)	E:\ViconData\BIOM9541 2025\Week 7\Mon0900\MingceV2 Cal 01.trc
DataRate	CameraRate	NumFrames	NumMarkers	Units	OrigDataRate	OrigDataStartFrame	OrigNumFrames
200.0	200.0	18	19	mm	200.0	205	273	
Frame#	Time	C7			CLAV			RBAK			LASI			RASI			LPSI			RPSI			LTHI			LKNE			LTIB			LANK			LHEE			LTOE			RTHI			RKNE			RTIB			RANK			RHEE			RTOE			
		X1	Y1	Z1	X2	Y2	Z2	X3	Y3	Z3	X4	Y4	Z4	X5	Y5	Z5	X6	Y6	Z6	X7	Y7	Z7	X8	Y8	Z8	X9	Y9	Z9	X10	Y10	Z10	X11	Y11	Z11	X12	Y12	Z12	X13	Y13	Z13	X14	Y14	Z14	X15	Y15	Z15	X16	Y16	Z16	X17	Y17	Z17	X18	Y18	Z18	X19	Y19	Z19	
205	1.02	238.80867	1434.458	-1047.0192	243.98468	1381.9159	-907.24646	82.420189	1411.4275	-984.8418	337.33832	944.11108	-810.40454	109.45341	969.72095	-827.00403	268.4599	979.2796	-1024.6885	199.31374	983.64935	-1023.4027	408.33936	669.42841	-876.75897	367.52472	470.85886	-916.53625	377.62427	262.20547	-994.22943	332.66974	79.626472	-957.74847	277.4917	44.931248	-1004.8257	323.20117	43.476845	-819.62885	47.495373	705.01532	-885.21667	94.613098	473.96933	-940.65088	77.928093	367.05045	-1010.6844	125.36777	78.535309	-986.78198	187.65833	49.623081	-1017.3154	98.57016	42.966354	-849.33557
206	1.025	238.83681	1434.4642	-1047.0385	244.00676	1381.9519	-907.27863	82.421753	1411.4514	-984.85211	337.37955	944.15485	-810.49347	109.48447	969.75696	-827.10547	268.51871	979.27136	-1024.7646	199.3381	983.64514	-1023.4639	408.37637	669.42078	-876.86182	367.57233	470.94943	-916.53259	377.63055	262.20731	-994.26617	332.65103	79.60257	-957.81628	277.4971	44.919697	-1004.8474	323.20526	43.476467	-819.6734	47.367199	705.06451	-885.22021	94.594353	473.98291	-940.70813	77.961433	367.03183	-1010.7545	125.35214	78.546478	-986.77032	187.63785	49.584099	-1017.3334	98.57135	42.995838	-849.38855
207	1.03	238.82005	1434.5388	-1047.0565	244.01675	1381.9337	-907.30005	82.416252	1411.437	-984.85077	337.43207	944.1311	-810.55273	109.55837	969.73383	-827.17157	268.52499	979.30176	-1024.8417	199.34877	983.68463	-1023.5341	408.41867	669.41821	-876.84631	367.55005	470.88428	-916.55273	377.63211	262.18863	-994.2146	332.17212	79.014503	-958.22296	277.47699	44.933571	-1004.8563	323.18845	43.435276	-819.69739	47.390484	705.08972	-885.2641	94.592468	474.01166	-940.76685	77.94783	367.07376	-1010.83	125.32722	78.56971	-986.78558	187.6259	49.604843	-1017.372	98.560875	42.983574	-849.37805
208	1.035	238.81064	1434.5869	-1047.0552	244.03116	1381.8768	-907.3042	82.416061	1411.4071	-984.83539	337.46268	944.11816	-810.58258	109.61494	969.70026	-827.20508	268.53784	979.341	-1024.923	199.35594	983.74756	-1023.5988	408.45331	669.38	-876.81085	367.52856	470.71521	-916.55115	377.62045	262.12289	-994.16711	332.16074	78.949127	-958.15833	277.44098	45.016571	-1004.8994	323.17981	43.347031	-819.73346	47.377182	705.11591	-885.30585	94.576546	474.01932	-940.77979	77.917458	367.10825	-1010.9122	125.34283	78.538063	-986.8089	187.61224	49.637115	-1017.3481	98.549278	42.956558	-849.3443
209	1.04	238.76779	1434.4669	-1047.0715	244.02747	1381.8444	-907.29877	82.388466	1411.3702	-984.81622	337.48724	944.10352	-810.61987	109.67664	969.68036	-827.24451	268.56931	979.32697	-1024.9794	199.4032	983.71411	-1023.6471	408.47632	669.42377	-876.79749	367.52466	470.65088	-916.55994	377.64075	262.10471	-994.17261	332.48096	79.288963	-957.90063	277.43893	45.072708	-1004.9564	323.19037	43.36578	-819.67291	47.408531	705.11743	-885.33533	94.609848	473.99698	-940.79443	77.918365	367.11053	-1010.9659	125.32808	78.528549	-986.8299	187.64099	49.587002	-1017.3505	98.561531	42.920734	-849.34906
210	1.045	238.77478	1434.4735	-1047.0605	244.01256	1381.8734	-907.28986	82.403214	1411.3667	-984.80591	337.54208	944.11609	-810.68341	109.69875	969.72034	-827.27979	268.61847	979.27423	-1025.0216	199.44839	983.65344	-1023.701	408.50818	669.45392	-876.85052	367.55035	470.68048	-916.61902	377.63333	262.06415	-994.22272	332.16849	78.879211	-958.20258	277.49106	44.973961	-1004.9013	323.19879	43.434349	-819.62756	47.39584	705.13043	-885.36121	94.64621	473.9353	-940.784	77.938126	367.06525	-1011.0258	125.31343	78.482269	-986.84546	187.62802	49.53297	-1017.3605	98.55246	42.922108	-849.39478
211	1.05	238.76009	1434.4836	-1047.0333	244.00217	1381.9274	-907.28888	82.405861	1411.3951	-984.79199	337.57434	944.14917	-810.75635	109.70355	969.75989	-827.33105	268.66003	979.26074	-1025.0535	199.48985	983.64484	-1023.7228	408.54138	669.41016	-876.99481	367.61197	470.80682	-916.64587	377.61823	262.06494	-994.29816	332.48593	79.340569	-957.93982	277.50073	44.939808	-1004.8799	323.2048	43.499645	-819.58789	47.384003	705.12354	-885.37866	94.631134	473.92831	-940.77112	77.947021	367.03839	-1011.0526	125.32661	78.448265	-986.86694	187.59831	49.494244	-1017.3639	98.547096	42.954823	-849.42218
212	1.055	238.75676	1434.5413	-1047.0292	244.01884	1381.9525	-907.31683	82.397537	1411.4148	-984.76855	337.60464	944.16864	-810.81958	109.71526	969.78748	-827.38153	268.6897	979.30902	-1025.1042	199.51442	983.68396	-1023.7695	408.53909	669.42133	-877.06158	367.64023	470.87598	-916.64587	377.63147	262.11221	-994.25659	332.50119	79.377739	-957.92621	277.49033	44.936848	-1004.8456	323.21509	43.501804	-819.59747	47.356983	705.13428	-885.40619	94.59742	473.96436	-940.7937	77.951096	367.04529	-1011.0671	125.28978	78.465057	-986.85242	187.56177	49.500584	-1017.3536	98.526123	42.958111	-849.4317
213	1.06	238.70497	1434.594	-1047.0265	244.01517	1381.9089	-907.34937	82.367767	1411.4216	-984.77032	337.64307	944.15704	-810.88086	109.77779	969.75543	-827.41846	268.68628	979.38885	-1025.161	199.52556	983.74561	-1023.8326	408.59134	669.3775	-877.06445	367.65298	470.79987	-916.66034	377.65024	262.13727	-994.19312	332.50641	79.402153	-957.83307	277.45898	44.971958	-1004.8376	323.23889	43.435658	-819.64203	47.339596	705.17987	-885.42175	94.584015	474.03867	-940.85529	77.927071	367.06863	-1011.1255	125.27622	78.484009	-986.85321	187.53223	49.544666	-1017.3608	98.496811	42.966923	-849.41467
214	1.065	238.72354	1434.6868	-1047.0566	244.03178	1381.8562	-907.38947	82.359772	1411.4056	-984.77307	337.67554	944.10632	-810.94281	109.82476	969.70837	-827.46741	268.69113	979.43372	-1025.2384	199.53818	983.78992	-1023.8874	408.61893	669.31622	-877.09802	367.65073	470.71768	-916.66052	377.6582	262.064	-994.18109	332.50272	79.349976	-957.80145	277.41333	45.017719	-1004.8468	323.22839	43.347755	-819.7337	47.351707	705.20282	-885.52161	94.553329	474.07812	-940.91156	77.917778	367.09863	-1011.1857	125.25224	78.48204	-986.84473	187.52249	49.561852	-1017.3505	98.501823	42.940598	-849.41473
215	1.07	238.67776	1434.5881	-1047.0903	244.03525	1381.8589	-907.44678	82.364502	1411.3997	-984.78088	337.70853	944.11084	-811.00037	109.84557	969.70349	-827.53558	268.74005	979.41351	-1025.2982	199.58594	983.77466	-1023.9362	408.67276	669.31525	-877.10913	367.69766	470.74124	-916.65399	377.66061	262.03098	-994.21759	332.54199	79.364845	-957.78998	277.48776	44.912785	-1004.7519	323.23727	43.329681	-819.75555	47.382828	705.2099	-885.61969	94.568413	474.08261	-940.97174	77.933014	367.09152	-1011.306	125.24239	78.476959	-986.86267	187.52464	49.516205	-1017.3508	98.522812	42.936447	-849.46326
216	1.075	238.79997	1434.7778	-1047.0574	244.0524	1381.9301	-907.47046	82.391739	1411.4257	-984.79535	337.73181	944.16821	-811.06866	109.88204	969.74792	-827.60718	268.82675	979.33954	-1025.3584	199.64554	983.71985	-1023.9988	408.67813	669.3761	-877.19257	367.74261	470.85449	-916.69116	377.66513	262.02521	-994.2876	332.55411	79.366432	-957.86554	277.50266	44.917301	-1004.8474	323.25162	43.448246	-819.70245	47.388611	705.20325	-885.67297	94.615891	474.04871	-941.02997	77.979179	367.08173	-1011.3801	125.23249	78.484909	-986.90735	187.53008	49.462887	-1017.4117	98.558792	42.97171	-849.58087
217	1.08	239.05247	1435.2261	-1046.7975	244.04378	1382.0144	-907.46777	82.420219	1411.4406	-984.79291	337.76361	944.22534	-811.12103	109.89883	969.82776	-827.6767	268.88361	979.27576	-1025.4149	199.72026	983.63281	-1024.0381	408.70468	669.44385	-877.28363	367.77393	470.96188	-916.73291	377.66577	262.06613	-994.33936	332.56256	79.405457	-957.95032	277.54364	44.843258	-1004.8547	323.25574	43.547264	-819.67871	47.392242	705.18994	-885.68628	94.662056	474.00412	-941.0506	78.021629	367.04803	-1011.3773	125.25904	78.431221	-986.922	187.52655	49.434879	-1017.441	98.574593	43.003635	-849.65546
218	1.085	238.81703	1434.7366	-1047.0616	244.04131	1382.0322	-907.46161	82.422157	1411.4515	-984.78021	337.80396	944.23718	-811.15735	109.95115	969.85223	-827.70532	268.91971	979.28027	-1025.4656	199.74887	983.65637	-1024.0958	408.72131	669.47418	-877.31165	367.80765	470.9873	-916.74371	377.65683	262.04733	-994.36896	332.21832	78.982437	-958.24408	277.53778	44.884052	-1004.9082	323.23859	43.561691	-819.6767	47.394466	705.19513	-885.68915	94.712326	473.96329	-941.05859	78.026581	367.06091	-1011.4052	125.28917	78.406807	-986.97058	187.52518	49.42683	-1017.4857	98.573067	43.018646	-849.69116
219	1.09	238.76898	1434.7727	-1047.0552	244.07762	1381.9771	-907.44263	82.396049	1411.4248	-984.74799	337.8317	944.20203	-811.18201	110.01437	969.80621	-827.71826	268.91943	979.32355	-1025.5153	199.74931	983.68561	-1024.1417	408.76797	669.52539	-877.21857	367.75345	470.8024	-916.7832	377.66055	262.03128	-994.30023	332.18896	78.950623	-958.18536	277.47397	44.971123	-1004.9527	323.23666	43.546078	-819.63489	47.378548	705.20404	-885.68579	94.709618	473.97342	-941.04437	78.021317	367.07797	-1011.407	125.29142	78.404709	-986.95953	187.50922	49.42767	-1017.4657	98.552925	43.01004	-849.63391
220	1.095	238.73044	1434.7793	-1047.0505	244.11217	1381.8989	-907.45044	82.373047	1411.3922	-984.73279	337.87448	944.14423	-811.19562	110.06638	969.763	-827.72809	268.93271	979.4137	-1025.5723	199.75107	983.75525	-1024.1942	408.80789	669.44885	-877.22723	367.76535	470.70789	-916.73706	377.68518	262.01776	-994.20782	332.17026	78.90715	-958.09235	277.4147	45.064335	-1004.9606	323.24341	43.467148	-819.65405	47.384331	705.21851	-885.70728	94.676727	474.02838	-941.03412	77.985474	367.1351	-1011.4374	125.25638	78.415993	-986.92511	187.50104	49.449726	-1017.4188	98.531174	42.990284	-849.53021
221	1.1	238.72256	1434.9049	-1047.0168	244.09154	1381.8519	-907.48181	82.354111	1411.3885	-984.72424	337.92249	944.12616	-811.24005	110.10007	969.73529	-827.76624	268.95773	979.46521	-1025.6041	199.78172	983.78223	-1024.2449	408.85056	669.39349	-877.26044	367.78152	470.68115	-916.73645	377.72272	262.0043	-994.16162	332.18872	78.908333	-958.04547	277.39566	45.043293	-1004.8865	323.2543	43.425755	-819.68689	47.414742	705.22711	-885.75964	94.660042	474.04282	-941.03979	78.000824	367.12985	-1011.4443	125.23894	78.435356	-986.90161	187.48003	49.454388	-1017.4116	98.520119	42.995884	-849.51196
222	1.105	238.72446	1434.9233	-1047.0231	244.07426	1381.9009	-907.5401	82.363541	1411.4309	-984.73608	337.96664	944.14386	-811.3194	110.1245	969.75983	-827.85852	269.00797	979.44025	-1025.6569	199.83951	983.7464	-1024.3047	408.9028	669.34656	-877.37854	367.83026	470.81442	-916.74127	377.71222	261.98093	-994.23383	332.24142	79.006844	-958.02411	277.46951	44.944859	-1004.8561	323.25427	43.455799	-819.70111	47.467083	705.23212	-885.87347	94.676788	474.05688	-941.09723	78.03627	367.10236	-1011.477	125.22796	78.398933	-986.90082	187.45491	49.42289	-1017.402	98.529259	43.013367	-849.59692
